<svg xmlns="http://www.w3.org/2000/svg" viewBox="0 0 100 112.75"><defs><style>.cls-1{fill:#fff;}</style></defs><g id="Layer_2" data-name="Layer 2"><g id="Layer_1-2" data-name="Layer 1"><path class="cls-1" d="M54.85,0V35.14A37.47,37.47,0,0,0,46.4,38l-.49-.86L31.39,11.53,30,9.09A65,65,0,0,1,54.85,0Z"/><path class="cls-1" d="M40.93,41.16a36,36,0,0,0-6.84,6.19L33.63,47,9,30.31l-.16-.11A65.29,65.29,0,0,1,24.75,12.71l1,1.76L40.4,40.26Z"/><path class="cls-1" d="M30.47,52.55a29.38,29.38,0,0,0-2.36,8.92H0c0-.54,0-1.08,0-1.62A52.65,52.65,0,0,1,3.16,41.8c.14-.37.28-.75.43-1.11s.39-1,.6-1.48.32-.74.49-1.12.35-.78.54-1.16.36-.76.57-1.14L30.35,52.47Z"/><path class="cls-1" d="M30.49,76.76l-4.68,3.17L9.93,90.72A52.84,52.84,0,0,1,.59,67.81H28.11A29.23,29.23,0,0,0,30.49,76.76Z"/><path class="cls-1" d="M40.36,89l-5,8.82-5.49,9.68A53,53,0,0,1,14,95.65l13.83-9.39,5.87-4A29,29,0,0,0,40.36,89Z"/><path class="cls-1" d="M54.85,94.56v18.16q-1,0-2,0a53.36,53.36,0,0,1-17.13-2.82l4.44-7.82,5.65-10A28.87,28.87,0,0,0,54.85,94.56Z"/><path class="cls-1" d="M78.32,106.27A53,53,0,0,1,61.2,112.1V94.56a29.13,29.13,0,0,0,9.07-2.44h0L78.16,106Z"/><path class="cls-1" d="M94.86,90.82a37.05,37.05,0,0,1-7.15,8.85,4.06,4.06,0,0,1-.5.43c-.53.47-1.09.93-1.66,1.38l-1,.76-.28.22-.57.4-7.9-13.93a29.61,29.61,0,0,0,6.6-6.62Z"/><path class="cls-1" d="M100,71.89A37.07,37.07,0,0,1,97.62,85l-12.07-8.2a28.84,28.84,0,0,0,2.39-9H99.78A39.23,39.23,0,0,1,100,71.89Z"/><path class="cls-1" d="M70.91,35.33l-1,1.68a29.42,29.42,0,0,0-8.74-2.29v-.33c.43,0,.84,0,1.27,0A36.77,36.77,0,0,1,70.91,35.33Z"/><path class="cls-1" d="M98.52,61.47H87.94a28.8,28.8,0,0,0-2.39-9l6.12-4.17A37,37,0,0,1,98.52,61.47Z"/><path class="cls-1" d="M87.21,43.69,82.38,47a29.67,29.67,0,0,0-6.9-6.84l1.6-2.82A37,37,0,0,1,87.21,43.69Z"/></g></g></svg>