<svg xmlns="http://www.w3.org/2000/svg" viewBox="0 0 200 35.08"><defs><style>.cls-1{fill:#fff;}</style></defs><g id="Layer_2" data-name="Layer 2"><g id="Layer_1-2" data-name="Layer 1"><path class="cls-1" d="M3.84,22.66H3.77v3.21H0V0H3.87V10.22H4a6.46,6.46,0,0,1,6-3.51c4.75,0,7.85,3.76,7.85,9.73s-3.09,9.75-7.87,9.75A6.58,6.58,0,0,1,3.84,22.66Zm0-6.22c0,3.93,2.07,6.47,5,6.47s4.93-2.47,4.93-6.47S11.91,10,8.86,10,3.85,12.55,3.85,16.44Z"/><path class="cls-1" d="M36.22,20.33c-.54,3.44-3.8,5.9-8.12,5.9-5.54,0-8.9-3.75-8.9-9.7s3.41-9.86,8.73-9.86,8.5,3.69,8.5,9.41v1.33H23.11v.23c0,3.28,2,5.45,5.08,5.45a4.27,4.27,0,0,0,4.35-2.76ZM23.13,14.7h9.43c-.09-2.88-1.92-4.91-4.63-4.91S23.33,11.85,23.13,14.7Z"/><path class="cls-1" d="M43.71,2.55V7H47.3v3.07H43.71v10.4c0,1.63.72,2.36,2.3,2.36a7.71,7.71,0,0,0,1.27-.09v3.07a10.47,10.47,0,0,1-2.15.18c-3.82,0-5.31-1.45-5.31-5.09V10.08H37.08V7h2.74V2.55Z"/><path class="cls-1" d="M54.76,2.55V7h3.58v3.07H54.76v10.4c0,1.63.72,2.36,2.29,2.36a7.76,7.76,0,0,0,1.28-.09v3.07a10.47,10.47,0,0,1-2.15.18c-3.82,0-5.31-1.45-5.31-5.09V10.08H48.13V7h2.74V2.55Z"/><path class="cls-1" d="M76.51,20.33c-.54,3.44-3.8,5.9-8.12,5.9-5.54,0-8.9-3.75-8.9-9.7s3.41-9.86,8.74-9.86,8.49,3.69,8.49,9.41v1.33H63.4v.23c0,3.28,2,5.45,5.08,5.45a4.27,4.27,0,0,0,4.35-2.76ZM63.42,14.7h9.43c-.09-2.88-1.92-4.91-4.62-4.91S63.62,11.85,63.42,14.7Z"/><path class="cls-1" d="M79,7h3.7v3.21h.09A4.53,4.53,0,0,1,87.3,6.71a6.65,6.65,0,0,1,1.33.14v3.6a5.8,5.8,0,0,0-1.74-.21c-2.49,0-4,1.67-4,4.34V25.87H79Z"/><path class="cls-1" d="M107.63,26.07a1.19,1.19,0,0,1-.92-.36,1.11,1.11,0,0,1-.34-.79,8.81,8.81,0,0,1,.71-2.87q3.11-7.63,3.38-8.22c.32-.71.63-1.5.93-2.39a6.86,6.86,0,0,0,.44-1.77,1.09,1.09,0,0,0-.09-.53c-.07-.09-.22-.13-.45-.13-.92,0-2.18.86-3.8,2.57a18,18,0,0,0-3.47,5c-.33.77-.78,1.79-1.33,3.05s-1,2.38-1.45,3.35-.82,1.95-1.19,2.92H96.91q1.65-3.59,3.39-8c1.16-3,1.89-5,2.17-6A11,11,0,0,0,103,9.12a1,1,0,0,0-.13-.55.56.56,0,0,0-.48-.16c-.9,0-2,.74-3.37,2.23a19.46,19.46,0,0,0-3.14,4.55c-.24.52-.62,1.38-1.12,2.58s-1.13,2.71-1.87,4.52-1.24,3-1.49,3.58H88.19q3.15-7.1,4.47-11.07c.15-.41.32-.92.53-1.53s.35-1,.43-1.28.18-.53.27-.86a7.4,7.4,0,0,0,.2-.75,2.58,2.58,0,0,0,0-.46.87.87,0,0,0-.06-.39.28.28,0,0,0-.25-.1c-.3,0-.78.34-1.43,1s-1.57,1.7-2.74,3.09l-.33-.27a29.55,29.55,0,0,1,3.8-4.6c1.29-1.25,2.29-1.87,3-1.87a.92.92,0,0,1,.69.3,1.17,1.17,0,0,1,.28.84,18.62,18.62,0,0,1-1.51,6.28l.12,0a28.14,28.14,0,0,1,4.17-5.37,6,6,0,0,1,3.93-2c1.37,0,2,.81,2,2.42a20.88,20.88,0,0,1-1.62,5.6l.11,0a29.69,29.69,0,0,1,4.88-5.8q2.52-2.26,4.46-2.26a1.26,1.26,0,0,1,1.09.49,2.14,2.14,0,0,1,.37,1.33,8.74,8.74,0,0,1-.76,3.3l-4.86,11.78.07.14a12.21,12.21,0,0,0,2.73-2.22,27.8,27.8,0,0,0,2.51-2.84l.31.29a20.19,20.19,0,0,1-3.68,4.46Q108.83,26.07,107.63,26.07Z"/><path class="cls-1" d="M117,26.07c-1.41,0-2.11-.86-2.11-2.58a13.63,13.63,0,0,1,1.3-5.43,24.27,24.27,0,0,1,3.19-5.37,20.93,20.93,0,0,1,4.18-4A7.32,7.32,0,0,1,127.67,7,2.44,2.44,0,0,1,129,7.4a2.59,2.59,0,0,1,.88.93l.25-.64L133,6.82h.25l-4.49,11.67q-1.65,4.38-1.44,5c.69-.17,2.17-1.48,4.46-3.94l.27.29a21.79,21.79,0,0,1-3.45,3.94q-2.45,2.32-3.7,2.33c-.69,0-1-.37-1-1.11a4.63,4.63,0,0,1,.2-1c.14-.47.29-.93.44-1.36l.65-1.82c.28-.77.48-1.34.61-1.7l-.15,0a30.93,30.93,0,0,1-2.4,3,20.2,20.2,0,0,1-3.18,2.81A5.6,5.6,0,0,1,117,26.07Zm2.35-2.21c.74,0,1.84-.69,3.27-2.05a19.11,19.11,0,0,0,3.78-5.18c1.59-3.07,2.39-5.25,2.39-6.56,0-1.58-.61-2.38-1.83-2.38-.77,0-1.69.59-2.75,1.75a22.38,22.38,0,0,0-2.9,4.11,37.68,37.68,0,0,0-2.24,4.79,11.5,11.5,0,0,0-.93,3.75,3,3,0,0,0,.22,1.37C118.49,23.72,118.82,23.86,119.34,23.86Z"/><path class="cls-1" d="M132.42,25.87q2.43-6,4.32-11.28c.31-.86.59-1.7.84-2.49s.42-1.41.52-1.83a5.1,5.1,0,0,0,.15-.8V9.25a.61.61,0,0,0-.05-.12.18.18,0,0,0-.14,0q-.36,0-1.53,1.11A22.46,22.46,0,0,0,134,13.14l-.35-.25a20,20,0,0,1,3.61-4.53,5.13,5.13,0,0,1,3-1.62c.69,0,1,.42,1,1.26a10.15,10.15,0,0,1-.34,2.06,24.41,24.41,0,0,1-.73,2.51l.12,0a17.53,17.53,0,0,1,3.55-4.37,5,5,0,0,1,2.71-1.38,2,2,0,0,1,1.43.55,1.78,1.78,0,0,1,.61,1.35,2,2,0,0,1-.56,1.38,1.79,1.79,0,0,1-1.4.61,2,2,0,0,1-.5-.06,2.07,2.07,0,0,1-.37-.11.8.8,0,0,1-.32-.22l-.25-.26a1.45,1.45,0,0,1-.19-.32l-.16-.31-.14-.35a1.93,1.93,0,0,0-.13-.32c-.7.15-1.61,1-2.75,2.49a16.63,16.63,0,0,0-2.44,4.27q-3.19,8.73-3.82,10.31Z"/><path class="cls-1" d="M146.94,35.08v-.43l1.7-.17a1.23,1.23,0,0,0,.78-.33,3.25,3.25,0,0,0,.54-1.09l3.34-9.42a9.93,9.93,0,0,1-2.39,1.65,5.23,5.23,0,0,1-2.19.7A3.52,3.52,0,0,1,146,24.85,5,5,0,0,1,145,21.3a14.68,14.68,0,0,1,1-5.24,18.1,18.1,0,0,1,2.57-4.68A14.69,14.69,0,0,1,152,8.1a6.6,6.6,0,0,1,3.66-1.28c1.49,0,2.36.48,2.62,1.43l.27-.68,2.77-.75h.25l-8.1,25.12a8.07,8.07,0,0,0-.48,1.92.39.39,0,0,0,0,.18.43.43,0,0,0,.15.15l.19.11a1.18,1.18,0,0,0,.27.1l.31.07.33.06.35,0,.37,0,.33,0v.43Zm1.82-9.56c.84,0,1.8-.65,2.87-1.95A23.41,23.41,0,0,0,154.52,19a44.54,44.54,0,0,0,2.17-5.36,14.78,14.78,0,0,0,.89-4.2A2.18,2.18,0,0,0,157.12,8a1.27,1.27,0,0,0-1-.59q-1.38,0-3.48,2.76a29.44,29.44,0,0,0-3.7,6.56,17.35,17.35,0,0,0-1.59,6.44,3.92,3.92,0,0,0,.31,1.8A1.14,1.14,0,0,0,148.76,25.52Z"/><path class="cls-1" d="M162.64,26.07a1.26,1.26,0,0,1-1.16-.56,2.3,2.3,0,0,1-.35-1.3,10,10,0,0,1,.79-3.3L166.3,9.43q0-.27-.21-.27a.83.83,0,0,0-.31.08,2,2,0,0,0-.4.24l-.43.34a6.65,6.65,0,0,0-.52.48l-.53.53-.59.63-.59.65-.64.72-.62.69-.33-.27a12.77,12.77,0,0,1,1.17-1.64q.82-1,1.86-2.13a13.65,13.65,0,0,1,2.19-1.88,3.75,3.75,0,0,1,2-.78,1,1,0,0,1,.84.37,1.3,1.3,0,0,1,.3.85,9.39,9.39,0,0,1-.62,2.87c-.16.46-.74,1.93-1.72,4.41s-1.57,4-1.75,4.52a18.91,18.91,0,0,0-.87,3.09,1.6,1.6,0,0,0,.1.66.4.4,0,0,0,.42.23,2.73,2.73,0,0,0,1.19-.42,6.54,6.54,0,0,0,1.43-1.09,22.58,22.58,0,0,0,4.46-6.09c.13-.26.4-.91.8-1.94l1.48-3.74c.57-1.46,1-2.64,1.4-3.53h3l-4.5,11.48q-1.69,4.47-1.51,5a2.23,2.23,0,0,0,.42-.23,5,5,0,0,0,.45-.29,4.13,4.13,0,0,0,.49-.38c.19-.17.35-.31.49-.42s.31-.28.51-.48l.48-.46.47-.5.43-.45.41-.44a2.31,2.31,0,0,0,.34-.37l.28.29a22.47,22.47,0,0,1-3.44,4c-1.58,1.53-2.82,2.3-3.7,2.3-.7,0-1-.37-1-1.11a28.78,28.78,0,0,1,1.51-5.45l-.08-.15a21.13,21.13,0,0,1-4.49,4.85Q163.92,26.07,162.64,26.07Z"/><path class="cls-1" d="M180.9,26.07a2.73,2.73,0,0,1-2.06-.88,3.77,3.77,0,0,1-.85-2.73,15.91,15.91,0,0,1,1-5.13,24.23,24.23,0,0,1,2.46-5.09,15.68,15.68,0,0,1,3.47-3.87,6.28,6.28,0,0,1,3.82-1.55,2.61,2.61,0,0,1,2,.64A2.15,2.15,0,0,1,191.29,9a3.85,3.85,0,0,1-.4,1.66,7.16,7.16,0,0,1-1.35,1.84,12.62,12.62,0,0,1-2.87,2.07A30.59,30.59,0,0,1,182,16.59a13.74,13.74,0,0,0-.95,4.63,3.33,3.33,0,0,0,.47,2,1.85,1.85,0,0,0,1.55.61q2.8,0,5.33-4.23l.43.25a10.44,10.44,0,0,1-1.26,2,16.33,16.33,0,0,1-1.9,2,10.19,10.19,0,0,1-2.36,1.59A5.57,5.57,0,0,1,180.9,26.07ZM182.24,16a14.29,14.29,0,0,0,4.95-3,5.14,5.14,0,0,0,1.56-3.66A2.24,2.24,0,0,0,188.44,8a.92.92,0,0,0-.76-.46c-.65,0-1.55.9-2.69,2.68A26.62,26.62,0,0,0,182.24,16Z"/><path class="cls-1" d="M194.57,24a.82.82,0,0,1-.64-.26,1.1,1.1,0,0,1-.23-.78,3.35,3.35,0,0,1,.26-1.27,4.73,4.73,0,0,1,.66-1.19,4.15,4.15,0,0,1,.92-.86,1.85,1.85,0,0,1,1-.34.88.88,0,0,1,.6.19.58.58,0,0,1,.22.45.48.48,0,0,1-.14.37.46.46,0,0,1-.31.14c-.28,0-.41-.16-.41-.46a.92.92,0,0,1,0-.16.86.86,0,0,0,0-.15.49.49,0,0,0,0-.12s0-.07,0-.09a.15.15,0,0,0-.08,0c-.1,0-.25.11-.42.33a4.66,4.66,0,0,0-.52.82,6.68,6.68,0,0,0-.43,1.13,4.61,4.61,0,0,0-.18,1.21.76.76,0,0,0,.1.4.36.36,0,0,0,.31.15.9.9,0,0,0,.58-.31,3.24,3.24,0,0,0,.61-.77l.11.06a3.39,3.39,0,0,1-.3.51,3.3,3.3,0,0,1-.44.49,1.93,1.93,0,0,1-.59.38A1.72,1.72,0,0,1,194.57,24Z"/><path class="cls-1" d="M195.53,26.07A4.47,4.47,0,1,1,200,21.6,4.47,4.47,0,0,1,195.53,26.07Zm0-8a3.53,3.53,0,1,0,3.53,3.53A3.53,3.53,0,0,0,195.53,18.07Z"/></g></g></svg>